<?xml version="1.0" encoding="UTF-8"?>
<svg width="64px" height="64px" viewBox="0 0 64 64" version="1.1" xmlns="http://www.w3.org/2000/svg" xmlns:xlink="http://www.w3.org/1999/xlink">
    <!-- Generator: Sketch 60.1 (88133) - https://sketch.com -->
    <title>Artboard</title>
    <desc>Created with Sketch.</desc>
    <g id="Artboard" stroke="none" stroke-width="1" fill="none" fill-rule="evenodd">
        <g id="gem" transform="translate(32.784610, 32.784610) rotate(-30.000000) translate(-32.784610, -32.784610) translate(8.784610, 8.784610)" fill="#FFFFFF" fill-rule="nonzero">
            <path d="M28.4457188,14.8865625 C28.4025938,14.8434375 28.3547812,14.805 28.303125,14.7703125 C28.2525,14.7365625 28.1982187,14.7075 28.1410313,14.6840625 C28.0847812,14.660625 28.0257187,14.6428125 27.9657188,14.630625 C27.8447812,14.60625 27.7210312,14.60625 27.5991562,14.630625 C27.5400937,14.6428125 27.4810312,14.660625 27.4238437,14.6840625 C27.3675937,14.7075 27.3132187,14.7365625 27.2625937,14.7703125 C27.2110312,14.805 27.1632187,14.8434375 27.1200937,14.8865625 C26.945625,15.061875 26.8453125,15.3028125 26.8453125,15.5503125 C26.8453125,15.61125 26.8509375,15.673125 26.863125,15.733125 C26.8753125,15.793125 26.8930312,15.8521875 26.9164687,15.9084375 C26.9399062,15.9646875 26.9690625,16.0190625 27.0028125,16.070625 C27.0374063,16.12125 27.0767812,16.17 27.12,16.213125 C27.163125,16.25625 27.2109375,16.295625 27.2625,16.329375 C27.313125,16.363125 27.3675,16.3921875 27.42375,16.415625 C27.4809375,16.4390625 27.54,16.456875 27.5990625,16.4690625 C27.66,16.48125 27.7219687,16.4878125 27.7828125,16.4878125 C27.84375,16.4878125 27.9058125,16.48125 27.9658125,16.4690625 C28.0258125,16.456875 28.0847812,16.4390625 28.141125,16.415625 C28.1983125,16.3921875 28.2525937,16.363125 28.3032187,16.329375 C28.354875,16.295625 28.4026875,16.25625 28.4458125,16.213125 C28.4889375,16.17 28.5283125,16.12125 28.5620625,16.070625 C28.5957187,16.0190625 28.624875,15.9646875 28.6483125,15.9084375 C28.67175,15.8521875 28.6894688,15.793125 28.7016563,15.733125 C28.7139375,15.673125 28.7204062,15.61125 28.7204062,15.5503125 C28.7204062,15.3028125 28.6200938,15.061875 28.4457188,14.8865625 Z" id="Path"></path>
            <path d="M39.4444687,14.361375 L31.5365625,6.4535625 C31.3607812,6.27778125 31.1222812,6.17896875 30.8736562,6.17896875 L17.1263437,6.17896875 C16.8777187,6.17896875 16.6392187,6.27778125 16.4634375,6.4535625 L8.555625,14.3614688 C8.37984375,14.53725 8.28103125,14.77575 8.28103125,15.024375 L8.28103125,32.9757187 C8.28103125,33.2243437 8.37984375,33.4628437 8.555625,33.638625 L16.4634375,41.5465313 C16.6392187,41.7223125 16.8777187,41.821125 17.1263437,41.821125 L30.87375,41.821125 C31.122375,41.821125 31.360875,41.7223125 31.5366562,41.5465313 L39.4445625,33.6387187 C39.6203437,33.4629375 39.7191562,33.2244375 39.7191562,32.9758125 L39.7191562,15.0242812 C39.7191562,14.7756563 39.62025,14.5371562 39.4444687,14.361375 Z M32.4403125,10.0089375 L35.7275625,13.2961875 L33.701625,15.7765312 L30.4145625,12.4894688 L32.4403125,10.0089375 Z M19.5178125,34.7912812 C19.5135937,34.7869687 19.509375,34.78275 19.5050625,34.7785313 L17.0165625,32.2900312 L32.2900312,17.0165625 L32.7830625,17.5095938 L32.7830625,30.4905 L28.492875,34.7806875 C28.4899687,34.7835937 28.4870625,34.7865 28.4841562,34.7894062 L28.3884375,34.885125 L19.6115625,34.885125 L19.6115625,34.885125 L19.5178125,34.7912812 Z M26.0597812,17.272875 C25.6937812,16.9067812 25.1001562,16.9067812 24.733875,17.272875 L15.2169375,26.7897188 L15.2169375,24.4279688 L26.5299375,13.1149687 L28.3884375,13.1149687 L28.48425,13.2107812 C28.4870625,13.2135937 28.489875,13.2165 28.4927812,13.2193125 L30.964125,15.69075 L15.6906562,30.964125 L15.2169375,30.4905 L15.2169375,29.4415312 L26.0597812,18.5986875 C26.425875,18.2325937 26.425875,17.6389688 26.0597812,17.272875 Z M15.2169375,21.7763438 L15.2169375,17.5095938 L19.5049687,13.2215625 C19.5092812,13.2173438 19.5135,13.213125 19.5177187,13.2088125 L19.6114687,13.1150625 L23.8782187,13.1150625 L15.2169375,21.7763438 Z M17.5146562,8.05396875 L30.4853437,8.05396875 L31.1078437,8.67646875 L28.9935,11.2654688 C28.9230937,11.2486875 28.8503437,11.2399687 28.77675,11.2399687 L19.22325,11.2399687 C19.1496562,11.2399687 19.077,11.2486875 19.0065937,11.265375 L16.89225,8.67628125 L17.5146562,8.05396875 Z M15.5596875,10.0089375 L17.5853437,12.4894688 L14.2982812,15.7765313 L12.2724375,13.2960938 L15.5596875,10.0089375 Z M10.1559375,32.5874063 L10.1559375,15.4125938 L10.9397812,14.62875 L13.3419375,17.5697813 L13.3419375,30.4302188 L10.9397812,33.37125 L10.1559375,32.5874063 Z M15.5596875,37.9910625 L12.2724375,34.7038125 L14.298375,32.223375 L17.5854375,35.5104375 L15.5596875,37.9910625 Z M30.4853437,39.9460313 L17.5146562,39.9460313 L16.89225,39.323625 L19.0065937,36.7345312 C19.077,36.7513125 19.1496562,36.7599375 19.22325,36.7599375 L28.77675,36.7599375 C28.8503437,36.7599375 28.923,36.7512187 28.9935,36.7344375 L31.1078437,39.3234375 L30.4853437,39.9460313 Z M32.4404062,37.9910625 L30.4146562,35.5105312 L33.7017187,32.2234687 L35.7275625,34.7038125 L32.4404062,37.9910625 Z M37.8440625,32.5874063 L37.060125,33.37125 L34.6579687,30.4302188 L34.6579687,17.5697813 L37.060125,14.62875 L37.8440625,15.4125937 L37.8440625,32.5874063 Z" id="Shape"></path>
            <path d="M24,43.3928437 C23.4822188,43.3928437 23.0625,43.8125625 23.0625,44.3303437 L23.0625,47.0625 C23.0625,47.5802812 23.4822188,48 24,48 C24.5176875,48 24.9375,47.5802812 24.9375,47.0625 L24.9375,44.3303437 C24.9375,43.8125625 24.5176875,43.3928437 24,43.3928437 Z" id="Path"></path>
            <path d="M24,0 C23.4822188,0 23.0625,0.41971875 23.0625,0.9375 L23.0625,3.66975 C23.0625,4.18753125 23.4822188,4.60725 24,4.60725 C24.5176875,4.60725 24.9375,4.18753125 24.9375,3.66975 L24.9375,0.9375 C24.9375,0.41971875 24.5176875,0 24,0 Z" id="Path"></path>
            <path d="M40.970625,39.6447188 L39.7017188,38.3757188 C39.3355313,38.0097188 38.7420938,38.009625 38.3758125,38.3757188 C38.0097188,38.7418125 38.0097188,39.3354375 38.3758125,39.7015313 L39.6447188,40.9705313 C39.8278125,41.153625 40.067625,41.245125 40.307625,41.245125 C40.5475313,41.245125 40.7874375,41.153625 40.970625,40.9705313 C41.3367188,40.6044375 41.3367188,40.0108125 40.970625,39.6447188 Z" id="Path"></path>
            <path d="M9.62428125,8.298375 L8.35528125,7.029375 C7.98909375,6.66328125 7.39546875,6.66328125 7.029375,7.029375 C6.66328125,7.3955625 6.66328125,7.9891875 7.029375,8.35528125 L8.298375,9.6241875 C8.481375,9.80728125 8.721375,9.89878125 8.96128125,9.89878125 C9.2011875,9.89878125 9.4411875,9.80728125 9.62428125,9.62428125 C9.990375,9.25809375 9.990375,8.66446875 9.62428125,8.298375 Z" id="Path"></path>
            <path d="M9.624375,38.375625 C9.2581875,38.0095313 8.6645625,38.0095313 8.29846875,38.375625 L7.02946875,39.644625 C6.663375,40.0108125 6.663375,40.6044375 7.02946875,40.9705313 C7.21246875,41.153625 7.45246875,41.245125 7.692375,41.245125 C7.93228125,41.245125 8.1721875,41.153625 8.35528125,40.970625 L9.624375,39.7015313 C9.99046875,39.3353437 9.99046875,38.7417188 9.624375,38.375625 Z" id="Path"></path>
            <path d="M40.970625,7.029375 C40.6043437,6.6631875 40.0109062,6.66328125 39.6447187,7.029375 L38.3758125,8.298375 C38.0097187,8.66446875 38.0097187,9.25809375 38.3758125,9.6241875 C38.5589062,9.80728125 38.7987187,9.89878125 39.0387187,9.89878125 C39.2787187,9.89878125 39.5185312,9.80728125 39.7017187,9.6241875 L40.970625,8.3551875 C41.3367187,7.98909375 41.3367187,7.39546875 40.970625,7.029375 Z" id="Path"></path>
            <path d="M3.66965625,23.0625 L0.9375,23.0625 C0.41971875,23.0625 0,23.4822188 0,24 C0,24.5177813 0.41971875,24.9375 0.9375,24.9375 L3.66965625,24.9375 C4.1874375,24.9375 4.60715625,24.5177813 4.60715625,24 C4.60715625,23.4822187 4.1874375,23.0625 3.66965625,23.0625 Z" id="Path"></path>
            <path d="M47.0625,23.0625 L44.33025,23.0625 C43.8125625,23.0625 43.39275,23.4822188 43.39275,24 C43.39275,24.5177813 43.8125625,24.9375 44.33025,24.9375 L47.0625,24.9375 C47.5801875,24.9375 48,24.5177813 48,24 C48,23.4822187 47.5801875,23.0625 47.0625,23.0625 Z" id="Path"></path>
        </g>
    </g>
</svg>