<?xml version="1.0" encoding="UTF-8"?>
<svg width="365px" height="402px" viewBox="0 0 365 402" version="1.1" xmlns="http://www.w3.org/2000/svg" xmlns:xlink="http://www.w3.org/1999/xlink">
    <!-- Generator: Sketch 58 (84663) - https://sketch.com -->
    <title>draw copy</title>
    <desc>Created with Sketch.</desc>
    <defs>
        <rect id="path-1" x="0" y="0" width="380" height="420"></rect>
        <filter x="0.0%" y="0.0%" width="100.0%" height="100.0%" filterUnits="objectBoundingBox" id="filter-3">
            <feGaussianBlur stdDeviation="0" in="SourceGraphic"></feGaussianBlur>
        </filter>
        <filter x="0.0%" y="0.0%" width="100.0%" height="100.0%" filterUnits="objectBoundingBox" id="filter-4">
            <feGaussianBlur stdDeviation="0" in="SourceGraphic"></feGaussianBlur>
        </filter>
        <filter x="0.0%" y="0.0%" width="100.0%" height="100.0%" filterUnits="objectBoundingBox" id="filter-5">
            <feGaussianBlur stdDeviation="0" in="SourceGraphic"></feGaussianBlur>
        </filter>
        <filter x="0.0%" y="0.0%" width="100.0%" height="100.0%" filterUnits="objectBoundingBox" id="filter-6">
            <feGaussianBlur stdDeviation="0" in="SourceGraphic"></feGaussianBlur>
        </filter>
        <filter x="0.0%" y="0.0%" width="100.0%" height="100.0%" filterUnits="objectBoundingBox" id="filter-7">
            <feGaussianBlur stdDeviation="0" in="SourceGraphic"></feGaussianBlur>
        </filter>
    </defs>
    <g id="Page-1" stroke="none" stroke-width="1" fill="none" fill-rule="evenodd">
        <g id="rrq-academy" transform="translate(-277.000000, -4300.000000)">
            <g id="kenapa" transform="translate(224.000000, 3216.000000)">
                <g id="draw-copy" transform="translate(44.000000, 1066.000000)">
                    <mask id="mask-2" fill="white">
                        <use xlink:href="#path-1"></use>
                    </mask>
                    <g id="Rectangle"></g>
                    <circle id="Oval" fill-opacity="0.05" fill="#000000" mask="url(#mask-2)" cx="190" cy="310" r="160"></circle>
                    <polygon id="Triangle" fill="#E24400" opacity="0.2" filter="url(#filter-3)" mask="url(#mask-2)" transform="translate(350.000000, 259.000000) rotate(-270.000000) translate(-350.000000, -259.000000) " points="350 235 374 283 326 283"></polygon>
                    <polygon id="Triangle-Copy-9" fill="#FFFFFF" opacity="0.2" filter="url(#filter-4)" mask="url(#mask-2)" points="215 30 239 78 191 78"></polygon>
                    <polygon id="Triangle-Copy-10" fill="#FFFFFF" opacity="0.2" filter="url(#filter-5)" mask="url(#mask-2)" points="32 197 51 235 13 235"></polygon>
                    <polygon id="Triangle-Copy-7" fill="#E24400" opacity="0.2" filter="url(#filter-6)" mask="url(#mask-2)" transform="translate(47.000000, 138.000000) rotate(-270.000000) translate(-47.000000, -138.000000) " points="47 126 59 150 35 150"></polygon>
                    <polygon id="Triangle-Copy-8" fill="#E24400" opacity="0.2" filter="url(#filter-7)" mask="url(#mask-2)" transform="translate(326.000000, 30.000000) rotate(-270.000000) translate(-326.000000, -30.000000) " points="326 18 338 42 314 42"></polygon>
                    <g id="Group-28" mask="url(#mask-2)">
                        <g transform="translate(9.000000, 50.169851)">
                            <g id="Group-16" stroke-width="1" fill="none" transform="translate(37.000000, 0.000000)"></g>
                            <g id="Group-26-Copy" stroke-width="1" fill="none" transform="translate(14.000000, 178.000000)">
                                <polygon id="Rectangle" fill="#E24400" points="39.5924553 69.8586115 154.882455 69.8586115 164.332455 177.858612 36 177.858612"></polygon>
                                <polygon id="Rectangle" fill="#7B1212" points="36 177.830149 161 177.971537 159.473148 193.830149 38 194"></polygon>
                                <path d="M76.7546668,0.873611925 C61.3310676,2.13361192 45.6938241,12.155603 29.8429364,30.939585 C6.06660481,59.1155581 -12.3851677,116.318167 10.3446681,141.387696 C25.4978919,158.100715 46.0009742,154.252937 71.8539148,129.84436 L51.8774552,104.938475 L98.1438485,127.560771 L98.0243774,2.76361191 L76.7546668,0.873611925 Z" id="Path-26" fill="#E24400"></path>
                                <path d="M175.913222,0.873611925 C159.273919,2.13361192 143.028824,12.155603 127.177936,30.939585 C103.401604,59.1155581 84.9498317,116.318167 107.679668,141.387696 C122.832891,158.100715 143.335974,154.252937 169.188914,129.84436 L149.212455,104.938475 L195.478848,127.560771 L195.359377,2.76361191 L175.913222,0.873611925 Z" id="Path-26-Copy" fill="#E24400" transform="translate(146.406924, 76.225149) scale(-1, 1) translate(-146.406924, -76.225149) "></path>
                                <g id="Group-25" transform="translate(59.437455, 69.858612)">
                                    <path d="M2.83499998,0 L75.5999996,0 C76.6438177,7.2250279e-15 77.4899996,0.846181818 77.4899996,1.88999999 L77.4899996,39.6899998 C77.4899996,40.7338179 76.6438177,41.5799998 75.5999996,41.5799998 L1.88999999,41.5799998 C0.846181818,41.5799998 3.39212874e-15,40.7338179 0,39.6899998 L0,2.83499998 C-6.35835497e-16,1.26927273 1.26927273,2.87619431e-16 2.83499998,0 Z" id="Rectangle" fill="#000000"></path>
                                    <circle id="Oval" stroke="#FFFFFF" stroke-width="1.88999999" fill="#FFFFFF" cx="68.9849996" cy="7.55999996" r="1.88999999"></circle>
                                    <circle id="Oval-Copy-77" stroke="#FFFFFF" stroke-width="1.88999999" cx="62.3699996" cy="7.55999996" r="1"></circle>
                                </g>
                                <path d="M53.7674552,106.900022 C57.743451,97.4949252 61.6572079,91.8959847 65.508726,90.1032 C69.3602441,88.3104152 76.8479833,88.3104152 87.9719436,90.1032 C90.2459588,104.391972 90.2459588,113.365896 87.9719436,117.024971 C85.6979283,120.684045 79.2473883,123.231926 68.6203234,124.668611 L53.7674552,106.900022 Z" id="Path-25" fill="#FFBB92"></path>
                                <path d="M105.742455,107.845022 C109.718451,98.4399252 113.632208,92.8409847 117.483726,91.0482 C121.335244,89.2554152 128.822983,89.2554152 139.946943,91.0482 C142.220959,105.336972 142.220959,114.310896 139.946943,117.969971 C137.672928,121.629045 131.222388,124.176926 120.595323,125.613611 L105.742455,107.845022 Z" id="Path-25" fill="#FFBB92" transform="translate(123.697455, 107.658611) scale(-1, 1) translate(-123.697455, -107.658611) "></path>
                                <path d="M131.270115,149.714014 C134.793228,148.814776 139.437747,146.395061 145.203672,142.45487 C149.886998,139.254481 155.310157,135.050978 161.473148,129.84436 L141.496689,104.938475 C140.227796,106.136104 139.014087,107.193002 137.85556,108.109167 M123.429082,76.3795132 C124.219303,72.5943163 125.175402,68.5076567 126.297378,64.1195345" id="Shape" stroke="#000000" stroke-width="1.88999999" stroke-linecap="round" stroke-linejoin="round" transform="translate(142.451115, 105.016470) scale(-1, 1) translate(-142.451115, -105.016470) "></path>
                                <path d="M42.0935111,149.714014 C48.4782443,148.084378 58.5459221,141.46116 72.2965445,129.84436 L52.3200849,104.938475 C42.794649,113.928948 36.3789544,114.988688 33.0730013,108.117694 C29.7670482,101.246701 31.4473467,85.3137776 38.1138968,60.3189254" id="Path-Copy" stroke="#000000" stroke-width="1.88999999" stroke-linecap="round" stroke-linejoin="round"></path>
                            </g>
                            <g id="Group-24" stroke-width="1" fill="none" transform="translate(49.000000, 17.830149)">
                                <path d="M62.3078583,32.6201221 C87.7129568,32.6201221 108.307858,57.5865018 108.307858,88.384092 C108.307858,111.659266 96.5450199,131.603928 79.8327617,139.95844 L82.8610498,161.757737 C76.1731065,167.665994 69.4851633,170.620122 62.79722,170.620122 C56.1092767,170.620122 49.4213335,167.665994 42.7333902,161.757737 L45.1373695,140.133511 C28.2372384,131.885152 16.3078583,111.823456 16.3078583,88.384092 C16.3078583,57.5865018 36.9027598,32.6201221 62.3078583,32.6201221 Z" id="Combined-Shape" fill="#FFBB92" transform="translate(62.307858, 101.620122) scale(-1, 1) translate(-62.307858, -101.620122) "></path>
                                <path d="M42.9546797,24.6948451 C42.9395441,24.7078086 42.9244003,24.7207722 42.9092483,24.7337357 C35.7977688,30.8180674 26.8709092,36.902399 16.1286694,42.9867307 C9.02947644,47.0076673 5.52260084,55.3007093 7.58319105,63.195039 L16.3078583,96.6201221 L16.3078583,96.6201221 L22.2106983,80.5923469 C24.6723958,73.9081857 31.0401601,69.4674715 38.1632188,69.4674715 L86.305757,69.4674715 C93.5009067,69.4674715 99.9168292,73.997151 102.325172,80.7772737 L108.307858,97.6201221 L108.307858,97.6201221 L116.265945,62.863082 C118.041931,55.106441 114.514098,47.1040819 107.589949,43.1828875 C96.7306158,37.0331702 87.7258903,30.883453 80.5757728,24.7337357 C80.5757728,24.7337357 80.5757728,24.7337357 80.5757728,24.7337357 C69.7645676,15.4351676 53.7850899,15.4186529 42.9546878,24.6948545 Z" id="Path-24" fill="#753900"></path>
                                <ellipse id="Oval" fill="#FFBB92" transform="translate(110.307858, 96.620122) rotate(20.000000) translate(-110.307858, -96.620122) " cx="110.307858" cy="96.6201221" rx="10" ry="13"></ellipse>
                                <ellipse id="Oval-Copy-64" fill="#FFBB92" transform="translate(14.307858, 96.620122) rotate(-20.000000) translate(-14.307858, -96.620122) " cx="14.3078583" cy="96.6201221" rx="10" ry="13"></ellipse>
                                <path d="M50.3078583,141.62132 C54.0834221,142.867405 58.0539839,143.53211 62.1514377,143.53211 L62.1514377,143.53211 C66.250204,143.53211 70.2219971,142.866979 73.9986455,141.620122" id="Path" stroke="#000000" stroke-width="2" fill="#FF9A5C" stroke-linecap="round" stroke-linejoin="round"></path>
                            </g>
                            <polygon id="Rectangle" fill="#000000" opacity="0.05" transform="translate(68.500000, 37.830149) scale(-1, 1) translate(-68.500000, -37.830149) " points="20 5.83014862 137 5.83014862 117 59.8301486 58.5 59.8301486 29.25 59.8301486 14.625 59.8301486 0 69.8301486"></polygon>
                            <polygon id="Rectangle-Copy-14" fill="#FFFFFF" transform="translate(71.500000, 32.000000) scale(-1, 1) translate(-71.500000, -32.000000) " points="23 0 140 0 120 54 61.5 54 32.25 54 17.625 54 3 64"></polygon>
                            <path d="M110.358347,31 L114.358347,43 L30.3583467,43 L26,31 L110.358347,31 Z M110.358347,10 L114.358347,22 L30.3583467,22 L26,10 L110.358347,10 Z" id="Combined-Shape" fill="#000000" opacity="0.1"></path>
                            <g id="Group-26" stroke-width="1" fill="none" transform="translate(159.000000, 89.830149)">
                                <path d="M85.4071039,9.18897085 C107.97246,9.18897085 143.126671,-8.4590954 159.683381,5.15979339 C176.240092,18.7786822 141.680651,92.5624504 144.121956,104.794031 C146.563261,117.025612 166.59466,106.164797 172.710478,113.203445 C178.826297,120.242094 163.004555,129.132245 163.553082,135.666665 C164.10161,142.201086 179.825426,145.504202 179.825426,156.189581 C179.825426,163.313167 174.401311,167.868808 163.553082,169.856505 L33.3801002,173.503448 C17.0451513,154.579512 9.1148898,139.879512 9.58931566,129.403446 C10.3009545,113.689347 38.2473399,116.478441 40.0166186,104.794031 C41.7858972,93.1096217 17.0616433,87.2560687 17.0616433,75.3735424 C17.0616433,63.4910162 33.0367092,65.4388867 36.8071019,48.2702629 C40.5774947,31.1016391 26.1827058,15.1952697 33.3801002,5.15979339 C40.5774947,-4.87568293 62.8417478,9.18897085 85.4071039,9.18897085 Z" id="Path-27" fill="#000000"></path>
                                <polygon id="Rectangle" fill="#FFDE9A" points="37.707102 195.103448 147.507106 195.103448 156.507107 279.703452 28.7071016 279.703452"></polygon>
                                <path d="M74.8364059,129.403446 C58.9894498,130.603446 43.5179297,140.1482 28.4218455,158.037707 C5.77771913,184.871969 -11.7953984,239.350646 9.85206526,263.226389 C24.2837077,279.143551 43.8104536,275.479 68.4323029,252.232736 L49.4071024,228.512844 L93.4703361,250.057888 L93.3565542,131.203446 L74.8364059,129.403446 Z" id="Path-26" fill="#FFDE9A"></path>
                                <path d="M168.787348,129.403446 C152.106433,130.603446 136.217933,140.1482 121.121849,158.037707 C98.4777228,184.871969 80.9046053,239.350646 102.552069,263.226389 C116.983711,279.143551 136.510457,275.479 161.132307,252.232736 L142.107106,228.512844 L186.17034,250.057888 L186.056558,131.203446 L168.787348,129.403446 Z" id="Path-26-Copy" fill="#FFDE9A" transform="translate(139.435172, 201.166818) scale(-1, 1) translate(-139.435172, -201.166818) "></path>
                                <g id="Group-25" transform="translate(56.607103, 195.103448)">
                                    <path d="M2.70000011,0 L72.0000029,0 C72.9941155,-7.90711505e-15 73.8000029,0.805887482 73.8000029,1.80000007 L73.8000029,37.8000015 C73.8000029,38.7941141 72.9941155,39.6000016 72.0000029,39.6000016 L1.80000007,39.6000016 C0.805887482,39.6000016 -3.2234553e-16,38.7941141 0,37.8000015 L0,2.70000011 C-1.8261552e-16,1.20883122 1.20883122,-1.7016593e-16 2.70000011,0 Z" id="Rectangle" fill="#000000"></path>
                                    <circle id="Oval" stroke="#FFFFFF" stroke-width="1.80000007" fill="#FFFFFF" cx="65.7000026" cy="7.20000029" r="1.80000007"></circle>
                                    <circle id="Oval-Copy-77" stroke="#FFFFFF" stroke-width="1.80000007" cx="59.4000024" cy="7.20000029" r="1"></circle>
                                </g>
                                <path d="M51.2071025,230.380983 C54.9937653,221.423748 58.7211531,216.091424 62.3892657,214.38401 C66.0573784,212.676596 73.1885589,212.676596 83.7828072,214.38401 C85.9485361,227.992365 85.9485361,236.538959 83.7828072,240.023792 C81.6170783,243.508626 75.4737066,245.935178 65.352692,247.30345 L51.2071025,230.380983 Z" id="Path-25" fill="#FFBB92"></path>
                                <path d="M100.707104,231.280983 C104.493767,222.323748 108.221155,216.991424 111.889268,215.28401 C115.55738,213.576596 122.688561,213.576596 133.282809,215.28401 C135.448538,228.892365 135.448538,237.438959 133.282809,240.923792 C131.11708,244.408626 124.973709,246.835179 114.852694,248.203451 L100.707104,231.280983 Z" id="Path-25" fill="#FFBB92" transform="translate(117.807105, 231.103450) scale(-1, 1) translate(-117.807105, -231.103450) "></path>
                                <path d="M127.708112,271.156216 C133.78881,269.604181 143.377075,263.296355 156.472907,252.232736 L137.447706,228.512844 C128.375862,237.075199 122.265676,238.084475 119.117149,231.540672 C115.968623,224.996868 117.568907,209.822655 123.918003,186.018033" id="Path" stroke="#000000" stroke-width="1.80000007" stroke-linecap="round" stroke-linejoin="round" transform="translate(137.012209, 228.587124) scale(-1, 1) translate(-137.012209, -228.587124) "></path>
                                <path d="M39.7081116,271.156216 C45.7888101,269.604181 55.3770751,263.296355 68.4729066,252.232736 L49.4477062,228.512844 C40.375862,237.075199 34.2656764,238.084475 31.1171495,231.540672 C27.9686226,224.996868 29.5689069,209.822655 35.9180026,186.018033" id="Path" stroke="#000000" stroke-width="1.80000007" stroke-linecap="round" stroke-linejoin="round"></path>
                                <path d="M92.4659734,13.3034412 C115.330563,13.3034412 133.865975,35.7731839 133.865975,63.4910162 C133.865975,84.4389074 123.279184,102.38927 108.237884,109.908182 L110.963846,129.527299 C104.944697,158.844731 98.9255481,173.503448 92.906399,173.503448 C86.8872498,173.503448 80.8681006,158.844731 74.8489514,129.527299 L77.0126462,110.065551 C61.8024677,102.642061 51.0659718,84.5864966 51.0659718,63.4910162 C51.0659718,35.7731839 69.6013839,13.3034412 92.4659734,13.3034412 Z" id="Combined-Shape" fill="#FFBB92" transform="translate(92.465973, 93.403444) scale(-1, 1) translate(-92.465973, -93.403444) "></path>
                                <ellipse id="Oval" fill="#FFBB92" transform="translate(135.665975, 72.703444) rotate(20.000000) translate(-135.665975, -72.703444) " cx="135.665975" cy="72.7034436" rx="9.00000036" ry="11.7000005"></ellipse>
                                <ellipse id="Oval-Copy-64" fill="#FFBB92" transform="translate(49.265972, 72.703444) rotate(-20.000000) translate(-49.265972, -72.703444) " cx="49.2659717" cy="72.7034436" rx="9.00000036" ry="11.7000005"></ellipse>
                                <path d="M81.665973,113.204523 C85.0639806,114.326 88.6374863,114.924235 92.3251949,114.924235 C96.0140847,114.924235 99.5886986,114.325616 102.987682,113.203445" id="Path" stroke="#000000" stroke-width="1.80000007" fill="#FF9A5C" stroke-linecap="round" stroke-linejoin="round"></path>
                                <path d="M51.0659718,62.0834431 C57.7603724,64.0851477 63.5491494,63.0896257 68.4323029,59.0968773 C73.3154563,55.1041289 76.6227982,50.4472185 78.3543285,45.1261463 C96.1640136,42.2640658 108.577459,47.9656364 115.594665,62.2308582 C122.611871,76.49608 132.895405,77.5871065 146.445267,65.5039379 L156.507107,45.8781189 L148.124845,13.3034412 L51.0659718,13.3034412 L51.0659718,62.0834431 Z" id="Path-28" fill="#000000"></path>
                            </g>
                            <polygon id="Rectangle-Copy-16" fill="#000000" opacity="0.05" points="237 45.8301486 354 45.8301486 334 99.8301486 275.5 99.8301486 246.25 99.8301486 231.625 99.8301486 217 109.830149"></polygon>
                            <polygon id="Rectangle-Copy-15" fill="#FFFFFF" points="233 39.8301486 350 39.8301486 330 93.8301486 271.5 93.8301486 242.25 93.8301486 227.625 93.8301486 213 103.830149"></polygon>
                            <path d="M322.358347,71 L326.358347,83 L292.358347,83 L288,71 L322.358347,71 Z M322.358347,50 L326.358347,62 L242.358347,62 L238,50 L322.358347,50 Z" id="Combined-Shape" fill="#000000" opacity="0.1" transform="translate(282.179173, 66.500000) scale(-1, 1) translate(-282.179173, -66.500000) "></path>
                        </g>
                    </g>
                </g>
            </g>
        </g>
    </g>
</svg>